<?xml version="1.0" standalone="no"?>
<!DOCTYPE svg PUBLIC "-//W3C//DTD SVG 20010904//EN"
 "http://www.w3.org/TR/2001/REC-SVG-20010904/DTD/svg10.dtd">
<svg version="1.0" xmlns="http://www.w3.org/2000/svg"
 width="1200.000000pt" height="1200.000000pt" viewBox="0 0 1200.000000 1200.000000"
 preserveAspectRatio="xMidYMid meet">
<metadata>
Created by potrace 1.16, written by Peter Selinger 2001-2019
</metadata>
<g transform="translate(0.000000,1200.000000) scale(0.100000,-0.100000)"
fill="#000000" stroke="none">
<path d="M0 6000 l0 -6000 6000 0 6000 0 0 6000 0 6000 -6000 0 -6000 0 0
-6000z m6813 4838 c441 -359 1511 -1228 2378 -1933 866 -704 1594 -1296 1617
-1315 l41 -35 -48 -57 -49 -57 -1609 1307 c-884 719 -1954 1587 -2376 1930
l-767 623 -502 -408 c-277 -224 -1068 -866 -1758 -1427 -690 -561 -1493 -1214
-1785 -1450 -291 -237 -570 -463 -619 -502 l-88 -72 -31 36 c-17 20 -39 46
-49 58 -20 23 -311 -217 2702 2231 723 588 1495 1216 1715 1395 220 180 406
327 413 327 7 1 374 -292 815 -651z m570 -2102 c48 -18 74 -41 98 -88 16 -31
19 -60 19 -183 l0 -145 -1500 0 -1500 0 0 145 c0 157 8 192 53 233 57 53 0 51
1447 51 1109 0 1352 -2 1383 -13z m117 -1560 l0 -1035 -26 -20 -27 -21 -1453
0 c-1441 0 -1454 0 -1474 20 -20 20 -20 33 -20 1055 l0 1035 1500 0 1500 0 0
-1034z m-3510 -2171 l0 -115 33 36 c28 31 41 37 83 41 59 5 90 -10 121 -56 21
-32 23 -44 23 -187 l0 -154 -45 0 -45 0 0 144 c0 138 -1 146 -22 160 -28 20
-51 20 -87 1 -47 -24 -61 -69 -61 -194 l0 -111 -45 0 -45 0 0 275 0 275 45 0
45 0 0 -115z m1410 0 l0 -115 33 36 c28 31 41 37 83 41 59 5 90 -10 121 -56
21 -32 23 -44 23 -187 l0 -154 -45 0 -45 0 0 144 c0 138 -1 146 -22 160 -28
20 -51 20 -87 1 -47 -24 -61 -69 -61 -194 l0 -111 -45 0 -45 0 0 275 0 275 45
0 45 0 0 -115z m606 68 c-3 -27 -8 -74 -11 -105 -6 -58 -7 -58 -40 -58 l-33 0
-7 78 c-3 42 -9 89 -11 105 -6 27 -5 27 51 27 l56 0 -5 -47z m1274 -48 l0 -95
33 20 c79 49 185 9 228 -85 38 -81 17 -207 -42 -262 -51 -46 -132 -56 -186
-23 -27 16 -33 17 -33 5 0 -11 -12 -15 -45 -15 l-45 0 0 275 0 275 45 0 45 0
0 -95z m600 -140 l0 -235 45 0 45 0 0 -40 0 -40 -133 0 -133 0 1 38 c1 36 1
37 43 40 l42 3 0 195 0 194 -43 0 -43 0 2 38 c1 20 2 38 3 40 1 1 39 2 86 2
l85 0 0 -235z m-4668 75 c20 -6 50 -26 67 -46 l31 -35 0 -154 0 -155 -45 0
c-42 0 -45 2 -45 27 l0 26 -22 -21 c-68 -63 -206 -53 -243 19 -55 106 42 199
208 199 55 0 58 1 55 22 -5 34 -44 50 -106 43 -30 -3 -67 -12 -84 -21 -16 -8
-31 -14 -33 -12 -1 2 -10 18 -19 36 l-17 33 43 18 c24 10 50 21 58 24 26 9
113 7 152 -3z m518 -15 c19 -9 36 -19 38 -20 6 -5 -28 -65 -36 -65 -4 0 -25 7
-47 15 -69 25 -175 12 -175 -21 0 -20 32 -34 122 -49 120 -21 157 -51 158
-123 0 -76 -70 -122 -186 -122 -61 0 -183 35 -190 55 -3 7 2 27 10 44 l16 30
45 -20 c90 -40 215 -33 215 11 0 21 -31 33 -130 50 -106 19 -150 53 -150 117
0 40 46 95 92 111 48 16 176 9 218 -13z m1410 0 c19 -9 36 -19 38 -20 6 -5
-28 -65 -36 -65 -4 0 -25 7 -47 15 -69 25 -175 12 -175 -21 0 -20 32 -34 122
-49 120 -21 157 -51 158 -123 0 -76 -70 -122 -186 -122 -61 0 -183 35 -190 55
-3 7 2 27 10 44 l16 30 45 -20 c90 -40 215 -33 215 11 0 21 -31 33 -130 50
-106 19 -150 53 -150 117 0 40 46 95 92 111 48 16 176 9 218 -13z m1410 0 c19
-9 36 -19 38 -20 6 -5 -28 -65 -36 -65 -4 0 -25 7 -47 15 -69 25 -175 12 -175
-21 0 -20 32 -34 122 -49 120 -21 157 -51 158 -123 0 -76 -70 -122 -186 -122
-61 0 -183 35 -190 55 -3 7 2 27 10 44 l16 30 45 -20 c90 -40 215 -33 215 11
0 21 -31 33 -130 50 -106 19 -150 53 -150 117 0 40 46 95 92 111 48 16 176 9
218 -13z m1838 10 c78 -33 122 -101 122 -189 0 -66 -12 -101 -48 -140 -82 -88
-239 -86 -315 3 -62 74 -62 198 0 272 54 63 161 87 241 54z m440 -5 c26 -16
32 -17 32 -5 0 11 12 15 46 15 l45 0 -3 -229 c-3 -213 -4 -232 -24 -258 -52
-72 -174 -94 -270 -49 -28 13 -54 28 -57 33 -3 5 3 24 13 41 l20 32 32 -20
c66 -40 164 -35 188 11 6 10 10 34 10 53 l0 35 -35 -21 c-48 -28 -121 -21
-169 15 -111 85 -97 284 24 348 45 25 107 24 148 -1z m-4238 -145 l0 -155 45
0 45 0 0 -40 0 -40 -135 0 -135 0 0 40 0 40 45 0 45 0 0 115 0 115 -45 0 -45
0 0 40 0 40 90 0 90 0 0 -155z m-2680 -746 c574 -466 2084 -1692 3565 -2896
286 -233 522 -423 525 -423 3 0 388 311 855 691 468 380 1407 1144 2089 1698
681 553 1367 1110 1524 1238 l285 231 43 -53 c24 -30 44 -58 44 -63 0 -5 -138
-121 -307 -259 -170 -137 -889 -722 -1599 -1299 -710 -577 -1661 -1349 -2113
-1716 l-821 -667 -453 368 c-1196 972 -3091 2511 -3697 3003 -371 302 -679
554 -684 562 -11 16 74 127 89 116 6 -4 300 -243 655 -531z"/>
<path d="M5372 7714 c-14 -10 -22 -25 -22 -46 0 -26 24 -55 160 -194 88 -90
160 -167 160 -172 0 -4 -74 -79 -165 -166 -138 -132 -165 -162 -165 -186 0
-36 24 -60 58 -59 21 0 72 44 236 204 l209 204 -199 206 c-109 114 -206 211
-215 216 -24 12 -31 12 -57 -7z"/>
<path d="M5837 6982 c-22 -24 -21 -44 1 -71 17 -21 19 -21 437 -19 l419 3 15
26 c13 24 13 29 -2 53 l-17 26 -419 0 c-392 0 -419 -1 -434 -18z"/>
<path d="M7313 4876 l-33 -15 0 -96 0 -96 37 -15 c49 -21 95 -11 127 27 21 25
26 41 26 85 0 45 -5 59 -27 84 -33 37 -84 47 -130 26z"/>
<path d="M3070 4732 c-62 -31 -47 -92 22 -92 37 0 97 25 114 48 7 9 14 27 14
40 0 20 -4 22 -57 22 -35 0 -72 -7 -93 -18z"/>
<path d="M8252 4875 c-59 -26 -80 -126 -38 -190 19 -29 83 -50 121 -41 15 4
40 20 56 36 25 24 29 36 29 82 0 60 -16 90 -60 113 -36 19 -65 18 -108 0z"/>
<path d="M8734 4880 c-66 -26 -87 -131 -38 -189 32 -38 78 -48 127 -27 l37 15
0 91 0 91 -35 15 c-38 16 -60 17 -91 4z"/>
</g>
</svg>
