<svg xmlns="http://www.w3.org/2000/svg" width="267" height="68" viewBox="0 0 267 68"><path fill="#000005" d="M24 60.60L24 60.60Q28.20 60.60 30.95 59.75Q33.70 58.90 34.90 58.10L34.90 58.10L34.90 43.60L22.50 44.90Q17.30 45.40 14.80 47.25Q12.30 49.10 12.30 52.70L12.30 52.70Q12.30 56.50 15.20 58.55Q18.10 60.60 24 60.60ZM23.90 18.30L23.90 18.30Q32.60 18.30 37.70 22.20Q42.80 26.10 42.80 34.50L42.80 34.50L42.80 58.20Q42.80 60.40 41.95 61.55Q41.10 62.70 39.40 63.70L39.40 63.70Q37 65.10 33.05 66.15Q29.10 67.20 24 67.20L24 67.20Q14.60 67.20 9.45 63.50Q4.30 59.80 4.30 52.80L4.30 52.80Q4.30 46.20 8.60 42.85Q12.90 39.50 20.70 38.70L20.70 38.70L34.90 37.30L34.90 34.50Q34.90 29.50 31.90 27.20Q28.90 24.90 23.80 24.90L23.80 24.90Q19.60 24.90 15.90 26.10Q12.20 27.30 9.30 28.80L9.30 28.80Q8.50 28.10 7.85 27.20Q7.20 26.30 7.20 25.20L7.20 25.20Q7.20 23.80 7.90 22.90Q8.60 22.00 10.10 21.20L10.10 21.20Q12.80 19.80 16.30 19.05Q19.80 18.30 23.90 18.30ZM90 53.50L90 53.50Q90 59.90 85.30 63.50Q80.60 67.10 71.70 67.10L71.70 67.10Q67.90 67.10 64.70 66.45Q61.50 65.80 59.25 64.75Q57.00 63.70 55.75 62.35Q54.50 61 54.50 59.60L54.50 59.60Q54.50 58.40 55.15 57.30Q55.80 56.20 57.10 55.40L57.10 55.40Q59.80 57.40 63.40 58.95Q67 60.50 71.60 60.50L71.60 60.50Q82 60.50 82 53.50L82 53.50Q82 47.80 75.10 46.10L75.10 46.10L66.80 43.90Q60.70 42.30 57.90 39.25Q55.10 36.20 55.10 31.40L55.10 31.40Q55.10 28.80 56.15 26.40Q57.20 24.00 59.40 22.20Q61.60 20.40 64.85 19.35Q68.10 18.30 72.50 18.30L72.50 18.30Q79.50 18.30 83.80 20.35Q88.10 22.40 88.10 25.10L88.10 25.10Q88.10 26.40 87.45 27.40Q86.80 28.40 85.70 28.90L85.70 28.90Q83.90 27.70 80.60 26.30Q77.30 24.90 72.80 24.90L72.80 24.90Q68.30 24.90 65.65 26.60Q63.00 28.30 63.00 31.40L63.00 31.40Q63.00 33.70 64.50 35.30Q66 36.90 69.50 37.70L69.50 37.70L76.40 39.40Q83.20 41.10 86.60 44.45Q90 47.80 90 53.50ZM110.30 65.60L110.30 65.60Q109.80 65.80 108.80 66.05Q107.80 66.30 106.60 66.30L106.60 66.30Q102.30 66.30 102.30 62.70L102.30 62.70L102.30 1Q102.80 0.80 103.85 0.55Q104.90 0.30 106.10 0.30L106.10 0.30Q110.30 0.30 110.30 3.90L110.30 3.90L110.30 21.90Q112.70 20.50 115.95 19.40Q119.20 18.30 123.30 18.30L123.30 18.30Q127.50 18.30 130.95 19.40Q134.40 20.50 136.90 22.75Q139.40 25.00 140.80 28.45Q142.20 31.90 142.20 36.50L142.20 36.50L142.20 65.60Q141.70 65.80 140.65 66.05Q139.60 66.30 138.50 66.30L138.50 66.30Q134.20 66.30 134.20 62.70L134.20 62.70L134.20 36.70Q134.20 30.70 130.90 27.80Q127.60 24.90 122.20 24.90L122.20 24.90Q118.70 24.90 115.65 26.15Q112.60 27.40 110.30 29.20L110.30 29.20L110.30 65.60ZM165.70 22.80L165.70 65.60Q165.20 65.80 164.20 66.05Q163.20 66.30 162.00 66.30L162.00 66.30Q157.70 66.30 157.70 62.70L157.70 62.70L157.70 19.80Q158.20 19.60 159.25 19.35Q160.30 19.10 161.50 19.10L161.50 19.10Q165.70 19.10 165.70 22.80L165.70 22.80ZM156.50 5.00L156.50 5.00Q156.50 2.90 157.95 1.45Q159.40 0 161.70 0L161.70 0Q164.00 0 165.40 1.45Q166.80 2.90 166.80 5.00L166.80 5.00Q166.80 7.10 165.40 8.55Q164.00 10.00 161.70 10.00L161.70 10.00Q159.40 10.00 157.95 8.55Q156.50 7.10 156.50 5.00ZM213.90 53.50L213.90 53.50Q213.90 59.90 209.20 63.50Q204.50 67.10 195.60 67.10L195.60 67.10Q191.80 67.10 188.60 66.45Q185.40 65.80 183.15 64.75Q180.90 63.70 179.65 62.35Q178.40 61 178.40 59.60L178.40 59.60Q178.40 58.40 179.05 57.30Q179.70 56.20 181 55.40L181 55.40Q183.70 57.40 187.30 58.95Q190.90 60.50 195.50 60.50L195.50 60.50Q205.90 60.50 205.90 53.50L205.90 53.50Q205.90 47.80 199 46.10L199 46.10L190.70 43.90Q184.60 42.30 181.80 39.25Q179 36.20 179 31.40L179 31.40Q179 28.80 180.05 26.40Q181.10 24.00 183.30 22.20Q185.50 20.40 188.75 19.35Q192 18.30 196.40 18.30L196.40 18.30Q203.40 18.30 207.70 20.35Q212 22.40 212 25.10L212 25.10Q212 26.40 211.35 27.40Q210.70 28.40 209.60 28.90L209.60 28.90Q207.80 27.70 204.50 26.30Q201.20 24.90 196.70 24.90L196.70 24.90Q192.20 24.90 189.55 26.60Q186.90 28.30 186.90 31.40L186.90 31.40Q186.90 33.70 188.40 35.30Q189.90 36.90 193.40 37.70L193.40 37.70L200.30 39.40Q207.10 41.10 210.50 44.45Q213.90 47.80 213.90 53.50ZM234.20 65.60L234.20 65.60Q233.70 65.80 232.70 66.05Q231.70 66.30 230.50 66.30L230.50 66.30Q226.20 66.30 226.20 62.70L226.20 62.70L226.20 1Q226.70 0.80 227.75 0.55Q228.80 0.30 230 0.30L230 0.30Q234.20 0.30 234.20 3.90L234.20 3.90L234.20 21.90Q236.60 20.50 239.85 19.40Q243.10 18.30 247.20 18.30L247.20 18.30Q251.40 18.30 254.85 19.40Q258.30 20.50 260.80 22.75Q263.30 25.00 264.70 28.45Q266.10 31.90 266.10 36.50L266.10 36.50L266.10 65.60Q265.60 65.80 264.55 66.05Q263.50 66.30 262.40 66.30L262.40 66.30Q258.10 66.30 258.10 62.70L258.10 62.70L258.10 36.70Q258.10 30.70 254.80 27.80Q251.50 24.90 246.10 24.90L246.10 24.90Q242.60 24.90 239.55 26.15Q236.50 27.40 234.20 29.20L234.20 29.20L234.20 65.60Z"></path></svg>