<?xml version="1.0" standalone="no"?>
<!DOCTYPE svg PUBLIC "-//W3C//DTD SVG 20010904//EN"
 "http://www.w3.org/TR/2001/REC-SVG-20010904/DTD/svg10.dtd">
<svg version="1.0" xmlns="http://www.w3.org/2000/svg"
 width="1200.000000pt" height="1200.000000pt" viewBox="0 0 1200.000000 1200.000000"
 preserveAspectRatio="xMidYMid meet">
<metadata>
Created by potrace 1.16, written by Peter Selinger 2001-2019
</metadata>
<g transform="translate(0.000000,1200.000000) scale(0.100000,-0.100000)"
fill="#000000" stroke="none">
<path d="M0 6000 l0 -6000 6000 0 6000 0 0 6000 0 6000 -6000 0 -6000 0 0
-6000z m10200 3300 l0 -900 -75 0 -75 0 0 825 0 825 -4050 0 -4050 0 0 -825 0
-825 -75 0 -75 0 0 900 0 900 4200 0 4200 0 0 -900z m-300 -3300 l0 -3900
-3900 0 -3900 0 0 3900 0 3900 3900 0 3900 0 0 -3900z m-7950 -3225 l0 -825
4050 0 4050 0 0 825 0 825 75 0 75 0 0 -900 0 -900 -4200 0 -4200 0 0 900 0
900 75 0 75 0 0 -825z"/>
<path d="M2250 6000 l0 -3750 3750 0 3750 0 0 3750 0 3750 -3750 0 -3750 0 0
-3750z m5165 2265 c67 -39 79 -75 83 -242 l3 -143 -1500 0 -1501 0 0 128 c0
70 5 144 10 164 11 39 59 94 94 108 12 5 639 9 1395 9 l1374 1 42 -25z m85
-1538 c0 -909 -2 -1025 -16 -1045 l-15 -22 -1469 0 -1469 0 -15 22 c-14 20
-16 136 -16 1045 l0 1023 1500 0 1500 0 0 -1023z m-3515 -2186 c0 -89 2 -118
10 -105 40 72 116 100 182 67 59 -28 68 -56 71 -230 l3 -153 -40 0 -41 0 0
124 c0 122 -9 173 -33 188 -25 16 -76 8 -105 -17 -38 -31 -45 -63 -46 -190
l-1 -100 -43 -3 -42 -3 0 276 0 276 43 -3 42 -3 0 -124z m1410 0 c0 -89 2
-118 10 -105 40 72 116 100 182 67 59 -28 68 -56 71 -230 l3 -153 -40 0 -41 0
0 124 c0 122 -9 173 -33 188 -25 16 -76 8 -105 -17 -38 -31 -45 -63 -46 -190
l-1 -100 -43 -3 -42 -3 0 276 0 276 43 -3 42 -3 0 -124z m605 101 c0 -16 -3
-63 -6 -105 l-7 -77 -33 0 c-33 0 -34 2 -34 38 0 20 -3 67 -7 105 l-6 67 47 0
c44 0 46 -1 46 -28z m1275 -69 c0 -51 0 -93 1 -93 1 0 23 9 49 21 79 35 160 7
205 -73 35 -61 35 -165 0 -226 -45 -79 -132 -110 -205 -73 -45 24 -56 26 -52
9 1 -9 -13 -14 -40 -16 l-43 -3 0 276 0 276 43 -3 42 -3 0 -92z m605 -138 l0
-235 45 0 45 0 0 -40 0 -40 -130 0 -130 0 0 40 0 40 43 0 42 0 0 193 0 192
-43 3 c-42 3 -42 3 -42 43 l0 39 85 0 85 0 0 -235z m-4635 57 c54 -32 65 -70
65 -229 l0 -143 -40 0 c-38 0 -40 2 -40 31 l0 31 -30 -26 c-60 -50 -161 -57
-213 -16 -33 26 -51 73 -43 113 12 66 81 104 207 114 75 6 79 7 73 27 -3 12
-13 27 -22 34 -21 16 -107 15 -157 -3 -22 -8 -43 -15 -46 -15 -6 0 -29 46 -29
60 0 7 57 29 115 44 35 9 128 -4 160 -22z m440 12 c75 -19 81 -25 65 -63 -7
-17 -14 -31 -15 -31 -1 0 -19 7 -38 15 -37 15 -132 20 -161 9 -9 -4 -21 -15
-27 -25 -9 -17 -5 -22 23 -33 18 -8 66 -19 105 -26 90 -15 135 -43 147 -91 31
-126 -149 -187 -334 -113 -22 9 -40 18 -40 21 0 5 30 63 33 63 1 0 26 -9 55
-20 70 -27 161 -27 193 -1 22 18 22 21 9 35 -9 9 -58 25 -110 36 -101 21 -137
40 -158 84 -29 58 12 119 95 142 64 17 88 17 158 -2z m1410 0 c75 -19 81 -25
65 -63 -7 -17 -14 -31 -15 -31 -1 0 -19 7 -38 15 -37 15 -132 20 -161 9 -9 -4
-21 -15 -27 -25 -9 -17 -5 -22 23 -33 18 -8 66 -19 105 -26 90 -15 135 -43
147 -91 31 -126 -149 -187 -334 -113 -22 9 -40 18 -40 21 0 5 30 63 33 63 1 0
26 -9 55 -20 70 -27 161 -27 193 -1 22 18 22 21 9 35 -9 9 -58 25 -110 36
-101 21 -137 40 -158 84 -29 58 12 119 95 142 64 17 88 17 158 -2z m1410 0
c75 -19 81 -25 65 -63 -7 -17 -14 -31 -15 -31 -1 0 -19 7 -38 15 -37 15 -132
20 -161 9 -9 -4 -21 -15 -27 -25 -9 -17 -5 -22 23 -33 18 -8 66 -19 105 -26
90 -15 135 -43 147 -91 31 -126 -149 -187 -334 -113 -22 9 -40 18 -40 21 0 5
30 63 33 63 1 0 26 -9 55 -20 70 -27 161 -27 193 -1 22 18 22 21 9 35 -9 9
-58 25 -110 36 -101 21 -137 40 -158 84 -29 58 12 119 95 142 64 17 88 17 158
-2z m1901 -10 c136 -65 135 -293 -2 -359 -55 -27 -147 -26 -201 3 -93 49 -127
188 -69 286 51 88 170 118 272 70z m427 1 c27 -19 37 -19 37 0 0 11 11 15 41
15 l40 0 -3 -222 c-3 -198 -5 -226 -22 -255 -22 -36 -75 -68 -127 -78 -49 -9
-139 10 -177 38 l-31 23 21 32 c18 29 23 31 37 19 50 -41 142 -50 184 -17 23
18 47 93 35 106 -3 2 -26 -5 -52 -17 -68 -29 -118 -19 -172 35 -130 129 -41
362 130 340 21 -2 48 -11 59 -19z m-4243 -140 l0 -155 44 0 44 0 0 -40 1 -40
-130 0 -129 0 0 40 0 40 43 0 42 0 0 113 0 112 -43 3 c-42 3 -42 3 -42 43 l0
39 85 0 85 0 0 -155z"/>
<path d="M5360 7255 c-19 -20 -22 -30 -14 -49 5 -13 79 -97 164 -186 85 -89
155 -165 156 -168 1 -4 -67 -72 -151 -152 -83 -80 -160 -159 -170 -177 -18
-29 -18 -33 -2 -57 10 -14 21 -26 25 -27 4 0 15 -2 25 -4 23 -4 55 24 277 241
l174 172 -38 43 c-21 24 -115 122 -209 217 -115 116 -178 172 -192 172 -12 0
-32 -11 -45 -25z"/>
<path d="M5840 6540 c-11 -11 -20 -31 -20 -45 0 -14 9 -34 20 -45 19 -19 33
-20 430 -20 397 0 411 1 430 20 11 11 20 31 20 45 0 14 -9 34 -20 45 -19 19
-33 20 -430 20 -397 0 -411 -1 -430 -20z"/>
<path d="M7299 4421 c-23 -18 -25 -26 -24 -106 0 -79 2 -89 24 -106 15 -12 39
-19 66 -19 85 0 135 90 99 179 -27 67 -112 94 -165 52z"/>
<path d="M3053 4280 c-60 -36 -31 -90 48 -90 68 0 129 47 129 101 0 5 -33 9
-72 9 -55 0 -81 -5 -105 -20z"/>
<path d="M8224 4406 c-31 -31 -34 -40 -34 -91 0 -51 3 -60 34 -91 28 -28 41
-34 78 -34 96 0 150 85 113 176 -19 49 -59 74 -115 74 -34 0 -48 -6 -76 -34z"/>
<path d="M8702 4410 c-79 -78 -30 -210 78 -210 33 0 70 15 82 34 4 6 8 48 8
93 0 81 0 83 -30 98 -49 25 -104 20 -138 -15z"/>
</g>
</svg>
