<?xml version="1.0" standalone="no"?>
<!DOCTYPE svg PUBLIC "-//W3C//DTD SVG 20010904//EN"
 "http://www.w3.org/TR/2001/REC-SVG-20010904/DTD/svg10.dtd">
<svg version="1.0" xmlns="http://www.w3.org/2000/svg"
 width="1200.000000pt" height="1200.000000pt" viewBox="0 0 1200.000000 1200.000000"
 preserveAspectRatio="xMidYMid meet">
<metadata>
Created by potrace 1.16, written by Peter Selinger 2001-2019
</metadata>
<g transform="translate(0.000000,1200.000000) scale(0.100000,-0.100000)"
fill="#000000" stroke="none">
<path d="M0 6000 l0 -6000 6000 0 6000 0 0 6000 0 6000 -6000 0 -6000 0 0
-6000z m10200 3300 l0 -900 -75 0 -75 0 0 825 0 825 -4050 0 -4050 0 0 -825 0
-825 -75 0 -75 0 0 900 0 900 4200 0 4200 0 0 -900z m-7713 422 c91 -65 78
-209 -23 -257 -73 -34 -160 -5 -197 66 -23 43 -18 120 9 156 48 64 147 80 211
35z m7200 0 c91 -65 78 -209 -23 -257 -73 -34 -160 -5 -197 66 -23 43 -18 120
9 156 48 64 147 80 211 35z m-2323 -1432 c51 -11 86 -38 113 -86 21 -35 23
-52 23 -186 l0 -148 -1500 0 -1500 0 0 146 c0 156 8 190 55 234 54 51 3 49
1435 49 767 0 1352 -3 1374 -9z m136 -1564 l0 -1035 -26 -20 -27 -21 -1444 0
c-1458 0 -1473 0 -1495 34 -4 6 -8 476 -8 1044 l0 1032 1500 0 1500 0 0 -1034z
m-3510 -2171 l0 -115 33 36 c28 31 41 37 83 41 59 5 90 -10 121 -56 21 -32 23
-44 23 -187 l0 -154 -45 0 -45 0 0 144 c0 138 -1 146 -22 160 -28 20 -51 20
-89 0 -46 -23 -59 -67 -59 -194 l0 -110 -45 0 -45 0 0 275 0 275 45 0 45 0 0
-115z m1410 0 l0 -115 33 36 c28 31 41 37 83 41 59 5 90 -10 121 -56 21 -32
23 -44 23 -187 l0 -154 -45 0 -45 0 0 144 c0 138 -1 146 -22 160 -28 20 -51
20 -89 0 -46 -23 -59 -67 -59 -194 l0 -110 -45 0 -45 0 0 275 0 275 45 0 45 0
0 -115z m606 68 c-3 -27 -8 -74 -11 -105 -6 -58 -7 -58 -40 -58 l-33 0 -7 78
c-3 42 -9 89 -11 105 -6 27 -5 27 51 27 l56 0 -5 -47z m1274 -48 l0 -94 35 21
c76 44 186 2 226 -86 38 -83 18 -208 -42 -263 -51 -46 -132 -56 -186 -23 -27
16 -33 17 -33 5 0 -11 -12 -15 -45 -15 l-45 0 0 275 0 275 45 0 45 0 0 -95z
m600 -140 l0 -235 45 0 45 0 0 -40 0 -41 -132 3 -133 3 0 35 c1 34 2 35 43 38
l42 3 0 194 0 194 -42 3 c-39 3 -42 5 -43 33 -1 17 0 33 3 38 2 4 41 7 88 7
l84 0 0 -235z m-4668 75 c20 -6 50 -26 67 -46 l31 -35 0 -154 0 -155 -45 0
c-42 0 -45 2 -45 27 l0 26 -22 -21 c-68 -63 -206 -53 -243 19 -55 106 42 199
208 199 55 0 58 1 55 22 -5 34 -44 50 -106 43 -30 -3 -67 -12 -84 -21 -16 -8
-31 -14 -33 -12 -1 2 -10 18 -19 36 l-17 33 43 18 c24 10 50 21 58 24 26 9
113 7 152 -3z m518 -15 c19 -9 36 -19 38 -20 6 -5 -28 -65 -36 -65 -4 0 -25 7
-47 15 -69 25 -175 12 -175 -21 0 -20 30 -33 122 -50 122 -23 157 -50 158
-121 0 -105 -141 -153 -304 -102 -37 11 -69 26 -72 34 -3 7 2 27 10 44 l16 30
45 -20 c89 -40 207 -35 213 8 4 24 -22 35 -128 53 -106 19 -150 53 -150 117 0
40 46 95 92 111 48 16 176 9 218 -13z m1410 0 c19 -9 36 -19 38 -20 6 -5 -28
-65 -36 -65 -4 0 -25 7 -47 15 -69 25 -175 12 -175 -21 0 -20 30 -33 122 -50
122 -23 157 -50 158 -121 0 -105 -141 -153 -304 -102 -37 11 -69 26 -72 34 -3
7 2 27 10 44 l16 30 45 -20 c89 -40 207 -35 213 8 4 24 -22 35 -128 53 -106
19 -150 53 -150 117 0 40 46 95 92 111 48 16 176 9 218 -13z m1410 0 c19 -9
36 -19 38 -20 6 -5 -28 -65 -36 -65 -4 0 -25 7 -47 15 -69 25 -175 12 -175
-21 0 -20 30 -33 122 -50 122 -23 157 -50 158 -121 0 -105 -141 -153 -304
-102 -37 11 -69 26 -72 34 -3 7 2 27 10 44 l16 30 45 -20 c89 -40 207 -35 213
8 4 24 -22 35 -128 53 -106 19 -150 53 -150 117 0 40 46 95 92 111 48 16 176
9 218 -13z m1838 10 c78 -33 122 -101 122 -189 0 -66 -12 -101 -48 -140 -82
-88 -239 -86 -315 3 -62 74 -62 198 0 272 54 63 161 87 241 54z m440 -5 c26
-16 32 -17 32 -5 0 11 12 15 46 15 l45 0 -3 -229 c-3 -213 -4 -232 -24 -258
-52 -72 -174 -94 -270 -49 -28 13 -54 28 -57 33 -3 5 3 24 13 41 l20 32 32
-20 c66 -40 164 -35 188 11 6 10 10 34 10 53 l0 35 -35 -21 c-48 -28 -121 -21
-169 15 -111 85 -97 284 24 348 45 25 107 24 148 -1z m-4238 -145 l0 -155 45
0 45 0 0 -40 0 -40 -135 0 -135 0 0 40 0 40 45 0 45 0 0 115 0 115 -45 0 -45
0 0 40 0 40 90 0 90 0 0 -155z m-2640 -1580 l0 -825 4050 0 4050 0 0 825 0
825 75 0 75 0 0 -900 0 -900 -4200 0 -4200 0 0 900 0 900 75 0 75 0 0 -825z
m537 -253 c91 -65 78 -209 -23 -257 -73 -34 -160 -5 -197 66 -23 43 -18 120 9
156 48 64 147 80 211 35z m7200 0 c91 -65 78 -209 -23 -257 -73 -34 -160 -5
-197 66 -23 43 -18 120 9 156 48 64 147 80 211 35z"/>
<path d="M5372 7264 c-15 -10 -22 -25 -22 -46 0 -26 23 -54 160 -193 88 -90
160 -167 160 -172 0 -5 -74 -80 -165 -167 -138 -132 -165 -162 -165 -186 0
-36 24 -60 58 -59 21 0 72 44 236 204 l210 204 -189 196 c-244 253 -239 250
-283 219z"/>
<path d="M5837 6532 c-22 -24 -21 -44 1 -71 17 -21 19 -21 437 -19 l419 3 15
26 c13 24 13 29 -2 53 l-17 26 -419 0 c-392 0 -419 -1 -434 -18z"/>
<path d="M7313 4426 l-33 -15 0 -96 0 -96 37 -15 c49 -21 95 -11 127 27 21 25
26 41 26 85 0 45 -5 59 -27 84 -33 37 -84 47 -130 26z"/>
<path d="M3070 4282 c-62 -30 -47 -92 22 -92 39 0 107 29 118 51 6 10 10 27
10 38 0 19 -6 21 -57 21 -35 0 -72 -7 -93 -18z"/>
<path d="M8253 4425 c-36 -16 -63 -60 -63 -105 0 -99 87 -158 170 -115 41 21
60 53 60 102 0 59 -14 90 -52 113 -38 23 -70 25 -115 5z"/>
<path d="M8734 4430 c-66 -26 -87 -131 -38 -189 32 -38 78 -48 127 -27 l37 15
0 90 c0 90 0 91 -30 106 -32 17 -64 18 -96 5z"/>
</g>
</svg>
